HIERARCHY
ROOT hip
{
  OFFSET 0 0 0
  CHANNELS 6 Xposition Yposition Zposition Zrotation Yrotation Xrotation
  JOINT abdomen
  {
    OFFSET 0 20.6881 -0.73152
    CHANNELS 3 Zrotation Xrotation Yrotation
    JOINT chest
    {
      OFFSET 0 11.7043 -0.48768
      CHANNELS 3 Zrotation Xrotation Yrotation
      JOINT neck
      {
        OFFSET 0 22.1894 -2.19456
        CHANNELS 3 Zrotation Xrotation Yrotation
        JOINT head
        {
          OFFSET -0.24384 7.07133 1.2192
          CHANNELS 3 Zrotation Xrotation Yrotation
          JOINT leftEye
          {
            OFFSET 4.14528 8.04674 8.04672
            CHANNELS 3 Zrotation Xrotation Yrotation
            End Site
            {
              OFFSET 1 0 0
            }
          }
          JOINT rightEye
          {
            OFFSET -3.6576 8.04674 8.04672
            CHANNELS 3 Zrotation Xrotation Yrotation
            End Site
            {
              OFFSET 1 0 0
            }
          }
        }
      }
      JOINT rCollar
      {
        OFFSET -2.68224 19.2634 -4.8768
        CHANNELS 3 Zrotation Xrotation Yrotation
        JOINT rShldr
        {
          OFFSET -8.77824 -1.95073 1.46304
          CHANNELS 3 Zrotation Xrotation Yrotation
          JOINT rForeArm
          {
            OFFSET -28.1742 -1.7115 0.48768
            CHANNELS 3 Zrotation Xrotation Yrotation
            JOINT rHand
            {
              OFFSET -22.5879 0.773209 7.07136
              CHANNELS 3 Zrotation Xrotation Yrotation
              JOINT rThumb1
              {
                OFFSET -1.2192 -0.487915 3.41376
                CHANNELS 3 Zrotation Xrotation Yrotation
                JOINT rThumb2
                {
                  OFFSET -3.37035 -0.52449 3.41376
                  CHANNELS 3 Zrotation Xrotation Yrotation
                  End Site
                  {
                    OFFSET -1.78271 -1.18214 1.43049
                  }
                }
              }
              JOINT rIndex1
              {
                OFFSET -7.75947 0.938293 5.60832
                CHANNELS 3 Zrotation Xrotation Yrotation
                JOINT rIndex2
                {
                  OFFSET -2.54057 -0.884171 1.56538
                  CHANNELS 3 Zrotation Xrotation Yrotation
                  End Site
                  {
                    OFFSET -1.62519 -0.234802 1.16502
                  }
                }
              }
              JOINT rMid1
              {
                OFFSET -8.24714 1.18213 3.41376
                CHANNELS 3 Zrotation Xrotation Yrotation
                JOINT rMid2
                {
                  OFFSET -3.10165 -0.590103 1.0647
                  CHANNELS 3 Zrotation Xrotation Yrotation
                  End Site
                  {
                    OFFSET -2.48547 -0.328903 0.83742
                  }
                }
              }
              JOINT rRing1
              {
                OFFSET -8.82822 0.546677 1.51678
                CHANNELS 3 Zrotation Xrotation Yrotation
                JOINT rRing2
                {
                  OFFSET -2.60934 -0.819778 -0.0198488
                  CHANNELS 3 Zrotation Xrotation Yrotation
                  End Site
                  {
                    OFFSET -2.33842 -0.294052 0.168128
                  }
                }
              }
              JOINT rPinky1
              {
                OFFSET -8.27202 -0.0477905 -0.4584
                CHANNELS 3 Zrotation Xrotation Yrotation
                JOINT rPinky2
                {
                  OFFSET -1.82734 -0.647385 -0.700984
                  CHANNELS 3 Zrotation Xrotation Yrotation
                  End Site
                  {
                    OFFSET -1.69225 -0.51767 -0.607171
                  }
                }
              }
            }
          }
        }
      }
      JOINT lCollar
      {
        OFFSET 2.68224 19.2634 -4.8768
        CHANNELS 3 Zrotation Xrotation Yrotation
        JOINT lShldr
        {
          OFFSET 8.77824 -1.95073 1.46304
          CHANNELS 3 Zrotation Xrotation Yrotation
          JOINT lForeArm
          {
            OFFSET 28.1742 -1.7115 0.48768
            CHANNELS 3 Zrotation Xrotation Yrotation
            JOINT lHand
            {
              OFFSET 22.5879 0.773209 7.07136
              CHANNELS 3 Zrotation Xrotation Yrotation
              JOINT lThumb1
              {
                OFFSET 1.2192 -0.487915 3.41376
                CHANNELS 3 Zrotation Xrotation Yrotation
                JOINT lThumb2
                {
                  OFFSET 3.37035 -0.52449 3.41376
                  CHANNELS 3 Zrotation Xrotation Yrotation
                  End Site
                  {
                    OFFSET 1.78271 -1.18214 1.43049
                  }
                }
              }
              JOINT lIndex1
              {
                OFFSET 7.75947 0.938293 5.60832
                CHANNELS 3 Zrotation Xrotation Yrotation
                JOINT lIndex2
                {
                  OFFSET 2.54057 -0.884171 1.56538
                  CHANNELS 3 Zrotation Xrotation Yrotation
                  End Site
                  {
                    OFFSET 1.62519 -0.234802 1.16502
                  }
                }
              }
              JOINT lMid1
              {
                OFFSET 8.24714 1.18213 3.41376
                CHANNELS 3 Zrotation Xrotation Yrotation
                JOINT lMid2
                {
                  OFFSET 3.10165 -0.590103 1.0647
                  CHANNELS 3 Zrotation Xrotation Yrotation
                  End Site
                  {
                    OFFSET 2.48547 -0.328903 0.83742
                  }
                }
              }
              JOINT lRing1
              {
                OFFSET 8.82822 0.546677 1.51678
                CHANNELS 3 Zrotation Xrotation Yrotation
                JOINT lRing2
                {
                  OFFSET 2.60934 -0.819778 -0.0198488
                  CHANNELS 3 Zrotation Xrotation Yrotation
                  End Site
                  {
                    OFFSET 2.33842 -0.294052 0.168128
                  }
                }
              }
              JOINT lPinky1
              {
                OFFSET 8.27202 -0.0477905 -0.4584
                CHANNELS 3 Zrotation Xrotation Yrotation
                JOINT lPinky2
                {
                  OFFSET 1.82734 -0.647385 -0.700984
                  CHANNELS 3 Zrotation Xrotation Yrotation
                  End Site
                  {
                    OFFSET 1.69225 -0.51767 -0.607171
                  }
                }
              }
            }
          }
        }
      }
    }
  }
  JOINT rButtock
  {
    OFFSET -8.77824 4.35084 1.2192
    CHANNELS 3 Zrotation Xrotation Yrotation
    JOINT rThigh
    {
      OFFSET 0 -1.70687 -2.19456
      CHANNELS 3 Zrotation Xrotation Yrotation
      JOINT rShin
      {
        OFFSET 0 -36.8199 0.73152
        CHANNELS 3 Zrotation Xrotation Yrotation
        JOINT rFoot
        {
          OFFSET 0.73152 -45.1104 -5.12064
          CHANNELS 3 Zrotation Xrotation Yrotation
          End Site
          {
            OFFSET -1.1221 -3.69964 12.103
          }
        }
      }
    }
  }
  JOINT lButtock
  {
    OFFSET 8.77824 4.35084 1.2192
    CHANNELS 3 Zrotation Xrotation Yrotation
    JOINT lThigh
    {
      OFFSET 0 -1.70687 -2.19456
      CHANNELS 3 Zrotation Xrotation Yrotation
      JOINT lShin
      {
        OFFSET 0 -36.8199 0.73152
        CHANNELS 3 Zrotation Xrotation Yrotation
        JOINT lFoot
        {
          OFFSET -0.73152 -45.1104 -5.12064
          CHANNELS 3 Zrotation Xrotation Yrotation
          End Site
          {
            OFFSET 1.1221 -3.69964 12.103
          }
        }
      }
    }
  }
}
MOTION
Frames:	4
Frame Time:	0.03333
-10.794650811002061 71.1135322417741 184.56934633521212 -15.231758117675781 -25.77397346496582 11.692416191101074 10.343818664550781 6.799131393432617 11.523102760314941 -1.832748293876648 -7.2301812171936035 2.915865659713745 -2.255176067352295 14.410164833068848 1.0680465698242188 7.551826000213623 -26.09025001525879 4.206247806549072 -0.03628666698932648 0.054434288293123245 -0.138391375541687 -0.04339758679270744 -0.10719767212867737 -0.11068203300237656 0.06528856605291367 0.08111391961574554 -0.10211534798145294 80.4376220703125 49.602928161621094 -22.094579696655273 -28.135278701782227 -37.91524887084961 80.50926971435547 -0.18092112243175507 8.533927917480469 1.148698329925537 0.004331954289227724 -0.043139439076185226 0.08117857575416565 0.015534546226263046 0.06105159595608711 -0.08443213254213333 0.03505886346101761 0.0988396629691124 -0.06372112035751343 7.70131778717041 5.6161789894104 0.19676975905895233 0.16128218173980713 -0.040116406977176666 0.09745461493730545 2.9156124591827393 0.9093747138977051 0.09573044627904892 -0.15975435078144073 -0.030694637447595596 -0.02497476153075695 10.404715538024902 0.7128046751022339 -0.030899250879883766 0.0411430224776268 -0.1709374636411667 0.03550506383180618 2.313782215118408 -0.607125461101532 -0.3757024109363556 -0.14203616976737976 0.01754121296107769 0.02998669445514679 -50.06644821166992 34.94985580444336 -28.86713409423828 28.41411590576172 -37.49073791503906 -79.11273193359375 0.7123402953147888 -25.849573135375977 3.8559582233428955 -0.2291852980852127 -0.11336321383714676 -0.04860620200634003 -0.12215092778205872 0.17086119949817657 -0.02265140786767006 -0.13573795557022095 -0.09635429084300995 -0.1453614979982376 -7.63983154296875 5.436680316925049 -0.4380723834037781 -0.05890275910496712 0.03269209340214729 0.14607176184654236 -2.9793460369110107 0.9921542406082153 -0.2605453133583069 -0.0930875763297081 -0.09482095390558243 -0.025799116119742393 -10.188817024230957 0.8187339305877686 0.013309181667864323 -0.17172159254550934 0.013693096116185188 0.10441917926073074 -2.1101112365722656 -0.8467868566513062 0.2705425024032593 0.03677797690033913 0.04042251408100128 -0.09147656708955765 -0.9576507806777954 -4.320710182189941 -7.158998966217041 -0.2024800181388855 42.81258773803711 1.7043750286102295 -16.242839813232422 -20.255842208862305 -30.02534294128418 0.13583728671073914 -0.14600762724876404 -0.03925968334078789 59.2129020690918 -56.863460540771484 48.91341018676758 1.7231401205062866 65.82603454589844 -1.9577025175094604 1.030728816986084 -1.5014450550079346 2.2729640007019043
-10.97939606218924 70.89946045280755 184.6335420025606 -15.592148780822754 -25.752727508544922 12.084685325622559 10.9049654006958 6.4778008460998535 11.429544448852539 -1.9505531787872314 -7.198308944702148 2.88596248626709 -2.2450249195098877 14.362825393676758 1.0316531658172607 7.511774063110352 -25.921981811523438 4.140785217285156 -0.022398633882403374 0.05080301687121391 -0.1547444611787796 -0.05313891917467117 -0.11895781755447388 -0.11452998220920563 0.05258627608418465 0.09226428717374802 -0.1108868271112442 79.9128646850586 49.473304748535156 -21.713960647583008 -28.115814208984375 -37.839412689208984 80.40519714355469 -0.1960093230009079 8.68212604522705 1.2001070976257324 -0.0009097940637730062 -0.0456584133207798 0.08837343752384186 0.005690384190529585 0.05168268829584122 -0.09727149456739426 0.025895701721310616 0.11615809053182602 -0.0702899619936943 7.680450916290283 5.6219048500061035 0.20894736051559448 0.16567304730415344 -0.008133548311889172 0.08539283275604248 2.9373269081115723 0.9106127619743347 0.07186673581600189 -0.1688566654920578 -0.037527743726968765 -0.038228534162044525 10.403366088867188 0.7078205943107605 -0.0245576910674572 0.051879286766052246 -0.17806963622570038 0.0354866199195385 2.3005564212799072 -0.6199047565460205 -0.36292868852615356 -0.12543343007564545 0.01725425198674202 0.03854944556951523 -49.96638488769531 34.282352447509766 -29.552988052368164 28.401424407958984 -37.691829681396484 -79.49855041503906 0.7334467768669128 -26.07237434387207 3.894833564758301 -0.20990516245365143 -0.13266155123710632 -0.04361840337514877 -0.10516247153282166 0.17594672739505768 -0.013640301302075386 -0.14347201585769653 -0.09421336650848389 -0.13721784949302673 -7.643095016479492 5.446832656860352 -0.42479509115219116 -0.058234404772520065 0.03798624873161316 0.11905951797962189 -2.9595260620117188 1.0008405447006226 -0.240828275680542 -0.08941187709569931 -0.12650099396705627 -0.03459997847676277 -10.179571151733398 0.8334170579910278 0.02728663757443428 -0.15053074061870575 0.01816498674452305 0.11417564004659653 -2.1303348541259766 -0.8434358835220337 0.26977431774139404 0.03801671415567398 0.020037692040205002 -0.10467766225337982 -0.30189257860183716 -3.685671091079712 -6.843097686767578 -0.18791814148426056 41.96043014526367 1.752545714378357 -16.485986709594727 -20.4859676361084 -30.503719329833984 0.1487271785736084 -0.13389919698238373 -0.06119609251618385 60.60219192504883 -57.02668380737305 50.176353454589844 1.846527338027954 66.47152709960938 -2.077042818069458 0.9894924163818359 -1.7110258340835571 2.3085274696350098
-11.156399987643297 70.6817686635809 184.65307180791436 -15.90909481048584 -25.699493408203125 12.434891700744629 11.379205703735352 6.2431745529174805 11.332846641540527 -2.033088207244873 -7.181632995605469 2.8697235584259033 -2.2376246452331543 14.308626174926758 1.0019404888153076 7.472426414489746 -25.760169982910156 4.0772175788879395 -0.011122969910502434 0.04570949822664261 -0.16859185695648193 -0.059349652379751205 -0.12399278581142426 -0.11924751847982407 0.03923475742340088 0.10261405259370804 -0.12180725485086441 79.41072845458984 49.28341293334961 -21.281902313232422 -28.10566520690918 -37.75328826904297 80.26371765136719 -0.20864030718803406 8.826972007751465 1.2551591396331787 -0.0036480079870671034 -0.04727588966488838 0.09245380759239197 -0.0015178968897089362 0.03978992998600006 -0.10763780772686005 0.01370322797447443 0.1333397924900055 -0.07272575050592422 7.662330627441406 5.625682353973389 0.22382012009620667 0.1652527004480362 0.02608218975365162 0.07482238858938217 2.9572854042053223 0.907994270324707 0.05082999914884567 -0.17769184708595276 -0.04273158684372902 -0.04919279366731644 10.398322105407715 0.7034894824028015 -0.0209183432161808 0.05959548056125641 -0.18511521816253662 0.03548458218574524 2.2859482765197754 -0.6349903345108032 -0.35218968987464905 -0.10925660282373428 0.018175462260842323 0.04819571599364281 -49.94631576538086 33.768489837646484 -30.106008529663086 28.391691207885742 -37.79930877685547 -79.72724151611328 0.7574090957641602 -26.19800567626953 3.916476011276245 -0.18749427795410156 -0.1449899971485138 -0.03906862810254097 -0.09261223673820496 0.17424331605434418 -0.0026613716036081314 -0.14466944336891174 -0.09801274538040161 -0.12492774426937103 -7.645605087280273 5.461088180541992 -0.4122005105018616 -0.056863050907850266 0.04227743297815323 0.09252449870109558 -2.941195249557495 1.0055667161941528 -0.22441624104976654 -0.08412116020917892 -0.15263372659683228 -0.04418102651834488 -10.170866012573242 0.8423660397529602 0.03639873489737511 -0.13017147779464722 0.01645209640264511 0.12164657562971115 -2.1487412452697754 -0.8384422659873962 0.2700083255767822 0.03884991630911827 0.0009369718609377742 -0.11151226609945297 0.2170049250125885 -3.207304000854492 -6.637771129608154 -0.17384600639343262 41.41044616699219 1.8053126335144043 -16.727468490600586 -20.70707893371582 -30.899784088134766 0.15559817850589752 -0.12107504159212112 -0.08446060121059418 61.87660598754883 -57.19350814819336 51.27851867675781 1.9654872417449951 67.12849426269531 -2.1935110092163086 0.934092104434967 -1.945942997932434 2.2414448261260986
-11.32479750121717 70.47082510125423 184.63963549179562 -16.17911720275879 -25.58831214904785 12.738079071044922 11.77593994140625 6.081455707550049 11.232166290283203 -2.0806424617767334 -7.174014091491699 2.86295485496521 -2.230304002761841 14.25212574005127 0.975757360458374 7.434666633605957 -25.61115837097168 4.013479709625244 -0.003249562345445156 0.039413586258888245 -0.1784214973449707 -0.061713796108961105 -0.1227969229221344 -0.12437137961387634 0.02617897093296051 0.11083710193634033 -0.1336941123008728 78.94268798828125 49.043182373046875 -20.83041000366211 -28.102903366088867 -37.66323471069336 80.1047592163086 -0.21702228486537933 8.962126731872559 1.309486985206604 -0.0033978819847106934 -0.048108842223882675 0.09334159642457962 -0.005637145135551691 0.027279596775770187 -0.11491373926401138 0.0003259468649048358 0.14868760108947754 -0.07109305262565613 7.648006439208984 5.62759256362915 0.23866048455238342 0.1613953709602356 0.05956410989165306 0.06646403670310974 2.9743402004241943 0.9025819301605225 0.03343715891242027 -0.18537062406539917 -0.047120917588472366 -0.05692222714424133 10.391121864318848 0.6988769173622131 -0.020140282809734344 0.06525956094264984 -0.19063787162303925 0.036212511360645294 2.2724406719207764 -0.6514551043510437 -0.3433607220649719 -0.0955619215965271 0.0198713019490242 0.057646628469228745 -49.979740142822266 33.39350128173828 -30.54497718811035 28.383907318115234 -37.836036682128906 -79.83572387695312 0.7840831279754639 -26.25658416748047 3.926778793334961 -0.1646633744239807 -0.15004350244998932 -0.0355401337146759 -0.08445718139410019 0.16674771904945374 0.007989313453435898 -0.14097854495048523 -0.10557929426431656 -0.1111128032207489 -7.646666049957275 5.477703094482422 -0.40082719922065735 -0.0548427514731884 0.04564589634537697 0.06924445182085037 -2.925363540649414 1.0068854093551636 -0.21273277699947357 -0.07787910103797913 -0.172138050198555 -0.05295398086309433 -10.162940979003906 0.8457385301589966 0.040587447583675385 -0.11267703026533127 0.011573121882975101 0.12623251974582672 -2.164255142211914 -0.8315743803977966 0.26991650462150574 0.040572505444288254 -0.014529237523674965 -0.11260394006967545 0.6113401651382446 -2.866462469100952 -6.533263206481934 -0.15993686020374298 41.103885650634766 1.8575917482376099 -16.96052360534668 -20.9070987701416 -31.22064971923828 0.15752337872982025 -0.10816001147031784 -0.10659561306238174 63.01559829711914 -57.35857391357422 52.22026443481445 2.0744082927703857 67.77208709716797 -2.3032443523406982 0.8719109892845154 -2.195645809173584 2.0948574542999268
